<svg xmlns="http://www.w3.org/2000/svg" width="86" height="86" viewBox="0 0 86 86"><g fill="#3154A1" fill-rule="evenodd"><path d="M30.4721238 78.5045553C30.2597081 78.2735704 29.9615956 78.0855166 29.5856535 77.9461883L27.5176911 77.1794872 25.3589744 82.2961832 26.4272343 82.6923077 27.1855808 80.8949981 28.1847214 81.2655747C28.5606634 81.404903 28.9155325 81.4594228 29.2389326 81.4267636 29.5634566 81.3943678 29.8548258 81.2805874 30.1054538 81.0888463 30.3555199 80.8973685 30.5564158 80.6252963 30.7022408 80.2797409 30.8480659 79.9341855 30.9000459 79.6070667 30.857338 79.3068127 30.8146301 79.006032 30.6848205 78.7360669 30.4721238 78.5045553M29.6190893 79.8780854C29.5123195 80.1311942 29.3558175 80.2979141 29.1546407 80.3740312 28.952902 80.4504115 28.6997452 80.4332918 28.4035995 80.3234621L27.5589942 80.0103025 28.2128187 78.4605707 29.057424 78.7737303C29.3541316 78.88356 29.5513748 79.0321067 29.6440959 79.2148929 29.7362551 79.3968889 29.7281069 79.6199723 29.6190893 79.8780854M34.3327584 79.3846154 30.8931588 84.7795493 30.8717949 84.8126824 32.1173145 85.0809165 32.9218206 83.762507 35.003282 84.2105242 35.1223098 85.7283085 36.3846154 86 35.760177 79.692033 34.3327584 79.3846154ZM33.429978 82.8690656 34.7719407 80.6188956 34.9556708 83.1975155 33.429978 82.8690656Z"/><polygon points="37.563 80.487 37.487 81.421 39.124 81.546 38.769 85.918 39.838 86 40.192 81.628 41.822 81.753 41.897 80.819 37.588 80.489"/><polygon points="44.103 80.539 44.321 86 45.205 85.948 44.987 80.487"/><polygon points="49.566 84.756 49.294 83.322 51.659 82.929 51.688 82.925 51.5 81.93 49.106 82.327 48.842 80.929 51.853 80.429 51.883 80.424 51.686 79.385 47.439 80.089 47.41 80.094 48.523 85.972 48.528 86 52.894 85.275 52.923 85.27 52.727 84.231"/><polygon points="57.444 77.179 56.412 77.508 57.624 80.5 57.976 81.292 57.252 80.648 54.216 78.223 54.203 78.212 52.923 78.62 55.008 83.771 55.017 83.795 56.049 83.466 54.838 80.474 54.492 79.697 55.198 80.32 58.238 82.754 58.25 82.765 59.538 82.354 57.454 77.204"/><polygon points="64.178 74.781 63.66 73.872 59.538 76.197 60.056 77.106 61.612 76.228 64.035 80.487 65.051 79.914 62.628 75.655"/><path d="M70.1621188,73.9836675 C69.9139782,73.691253 69.6205227,73.5148312 69.2902146,73.4592673 C68.9609984,73.4037035 68.5531635,73.4789836 68.0784479,73.682035 L67.188254,74.0594597 C66.946119,74.1600893 66.7495721,74.2038746 66.6054376,74.1897916 C66.4632141,74.1762207 66.3452859,74.1150236 66.2543829,74.0077367 C66.1793129,73.9199099 66.1348168,73.8205606 66.1219867,73.7130176 C66.1086106,73.6059867 66.1370007,73.4889697 66.2055192,73.3652952 C66.2748566,73.2405966 66.3933307,73.1146176 66.5584848,72.9914553 C66.810993,72.802999 67.0787882,72.686238 67.3547729,72.644245 C67.6313036,72.601996 67.9463247,72.6281135 68.2905549,72.7213175 L68.3249506,72.7305355 L68.3137583,71.7728906 L68.2946496,71.7677695 C67.8827199,71.6556175 67.4781608,71.6366695 67.0924373,71.7114375 C66.7064409,71.7862054 66.3267231,71.961603 65.9636572,72.2325089 C65.620519,72.4888198 65.3723784,72.7702239 65.2260601,73.0692959 C65.0791959,73.3691361 65.0245995,73.6710246 65.0633629,73.967024 C65.1023993,74.2630233 65.2296089,74.5398185 65.4414428,74.7892159 C65.6177891,74.9971323 65.81652,75.1456441 66.0319027,75.2309103 C66.2478314,75.3164326 66.4842337,75.3440866 66.7345581,75.31336 C66.9829716,75.2828895 67.2524047,75.2088896 67.5365789,75.0928968 L68.5042997,74.6780881 C68.7224122,74.5818115 68.8987585,74.5449396 69.0284249,74.5687527 C69.1575454,74.5925658 69.2678301,74.6570916 69.3554573,74.7605377 C69.4400816,74.8603991 69.4853966,74.9671739 69.4889454,75.0780456 C69.4927671,75.1894295 69.4550956,75.3069586 69.3775688,75.4275604 C69.29895,75.5494425 69.1772001,75.6726048 69.0155948,75.7932066 C68.8258724,75.9348049 68.6173142,76.0413237 68.3951069,76.1096903 C68.1728997,76.1785691 67.9476896,76.2116001 67.7260283,76.2092956 C67.50464,76.2067351 67.2898032,76.1729359 67.0867047,76.1089222 L67.0509441,76.0976558 L67.0779693,77.0867954 L67.096805,77.0916604 C67.3121878,77.1500409 67.5401276,77.1794872 67.776257,77.1794872 C67.8221179,77.1794872 67.8682519,77.1782069 67.9149318,77.1761585 C68.2001979,77.1625876 68.4922885,77.1029268 68.7832872,76.9989686 C69.0740129,76.8952664 69.3622818,76.7372806 69.6407233,76.5296202 C69.9592932,76.2914892 70.2017011,76.0251923 70.3608496,75.7376427 C70.520271,75.449069 70.5866056,75.1505091 70.5573965,74.8504129 C70.5284605,74.5500607 70.3952453,74.2584143 70.1621188,73.9836675"/><polygon points="69.462 70.201 73.167 73.872 73.872 73.133 70.167 69.462"/><polygon points="74.496 63.949 73.672 64.937 74.609 67.976 72.374 66.492 71.667 67.34 76.522 70.564 77.23 69.716 75.799 68.766 75.493 67.742 78.575 68.104 79.385 67.133 75.313 66.679"/><polygon points="76.854 57.333 76.306 58.501 77.614 61.539 75.444 60.339 74.974 61.342 79.688 63.949 80.158 62.947 78.769 62.178 78.338 61.152 81.052 61.041 81.59 59.894 78.007 60.067"/><polygon points="83.084 55.94 81.768 55.513 82.419 53.41 81.506 53.114 80.855 55.218 79.571 54.802 80.399 52.129 79.446 51.821 78.282 55.578 83.701 57.333 84.897 53.471 83.944 53.162"/><path d="M83.0812281,46.9699974 C82.8210855,46.6200381 82.3936467,46.4047772 81.8115595,46.3296027 C81.2651162,46.2590464 80.7974343,46.359108 80.4220241,46.6267089 C80.0474761,46.8937966 79.813204,47.3025101 79.7261065,47.8415603 L79.3883522,49.9264352 L79.3846154,49.9513223 L85.3000582,50.7143568 L85.3276534,50.7179487 L85.4937998,49.6937276 L83.2364514,49.4027791 L83.3741402,48.5532811 L85.7953353,47.7394461 L85.8108576,47.7343147 L86,46.5659022 L83.3347594,47.5326519 C83.2893423,47.3238052 83.2048318,47.1357406 83.0812281,46.9699974 M82.4016953,48.30364 L82.2444599,49.2747514 L80.5870206,49.0610299 L80.744256,48.0899185 C80.787661,47.8205217 80.8888436,47.626556 81.0440668,47.5128962 C81.1990026,47.4000061 81.4206269,47.3610077 81.7023283,47.3974404 C81.9846047,47.4338731 82.1843828,47.5270074 82.2967759,47.6745343 C82.4100314,47.8225742 82.4451003,48.0342432 82.4016953,48.30364"/><polygon points="85.97 42.87 83.72 42.936 83.66 40.832 85.909 40.766 85.879 39.692 80.512 39.851 80.487 39.851 80.518 40.925 82.711 40.86 82.771 42.964 80.578 43.029 80.609 44.103 85.975 43.944 86 43.943"/><polygon points="83.644 35.271 82.229 35.57 81.788 33.236 80.806 33.443 81.248 35.777 79.869 36.068 79.312 33.132 79.307 33.103 78.282 33.319 79.066 37.458 79.071 37.487 84.87 36.264 84.897 36.258 84.091 32.003 84.086 31.974 83.061 32.191"/><path d="M78.4359914 5.61166284 83.7698855 3.55426432 83.7948718 3.54455307 83.0807022 1.65418812C82.7934968.894213138 82.3324853.388118076 81.7102984.149776158 81.0889351-.0880108317 80.3431894-.0425066704 79.4939289.285178784 78.6386278.614806489 78.0513119 1.08372132 77.7473573 1.67832753 77.4434028 2.27404359 77.434891 2.9613229 77.7215473 3.72129789L78.4359914 5.61166284ZM78.7372002 2.22548732C78.948623 1.88365118 79.3426381 1.5998051 79.9077135 1.38171809 80.2816846 1.2374366 80.6183136 1.16529586 80.9140309 1.16529586 81.0661454 1.16529586 81.207277 1.1844409 81.3371509 1.22245352 81.7174373 1.33427167 81.9961309 1.61784029 82.1652691 2.06594529L82.4596136 2.84534279 78.9703144 4.19104512 78.67597 3.41192509C78.5068318 2.96409755 78.5274249 2.56482628 78.7372002 2.22548732L78.7372002 2.22548732ZM5.58833236 20.653535C5.41040776 20.3683016 5.18031391 20.1549315 4.90436603 20.0192514 4.62814357 19.8835713 4.32171787 19.8358475 3.99360074 19.8774671 3.62429736 19.9246361 3.32253943 20.0664204 3.09711335 20.299213 2.8714127 20.5320056 2.72726082 20.9124093 2.66767805 21.4293255L2.53258714 22.574976C2.49140089 22.9134826 2.40600807 23.1476625 2.27887984 23.2714116 2.15147704 23.3954382 1.99222354 23.4706311 1.80551253 23.4942156 1.63912008 23.5153028 1.4839852 23.4950479 1.3434028 23.4340058 1.20419327 23.3735185 1.08228197 23.2628102.980963796 23.104933.878272744 22.9445586.809628993 22.7289687.776679992 22.4639902.735493742 22.1340851.773659667 21.8402503.889530319 21.5908098 1.00595012 21.3408144 1.23274907 21.0966457 1.56388653 20.8652404L1.61962525 20.8263954 1.0281907 20.287282.993319671 20.3128088C.62127054 20.5844464.349441286 20.9040854.184421709 21.2631243.0196767062 21.6229957-.0352382946 22.0380824.0218733063 22.496731.071571382 22.8976671.195130134 23.2397807.388980087 23.5139155.58337919 23.7886053.823906893 23.9908768 1.10424797 24.1149034 1.3170436 24.2089638 1.54137138 24.2564103 1.77283811 24.2564103 1.84560048 24.2564103 1.91946116 24.2516934 1.99387099 24.2422596 2.22259196 24.2134033 2.43264184 24.1412625 2.61825454 24.0280571 2.80578927 23.9140192 2.9614733 23.7447659 3.08091343 23.5252916 3.19898068 23.3083144 3.27970573 23.0302951 3.32061741 22.6987251L3.46998621 21.4562395C3.50513181 21.1604625 3.58448398 20.9509769 3.70639529 20.833332 3.82913031 20.7148547 3.97740081 20.6438238 4.14708817 20.6221816 4.33407375 20.5985971 4.5004662 20.6268985 4.6421469 20.7065307 4.78437675 20.7869954 4.902444 20.9162938 4.99223003 21.0910964 5.08421266 21.2692285 5.14709033 21.4900902 5.17894103 21.7467448 5.21353748 22.0233768 5.19953416 22.2769792 5.13802936 22.5006155 5.07679913 22.7236969 4.97465723 22.9226389 4.83407483 23.0924471 4.69239413 23.2636426 4.5202356 23.4123636 4.3225416 23.5344479L4.25938934 23.5730154 4.90189485 24.1315513 4.93621673 24.1065795C5.15697503 23.9450952 5.35302159 23.7467082 5.51831574 23.5169676 5.68470819 23.2863947 5.80799237 23.0166993 5.88514794 22.7150955 5.96230352 22.4134917 5.97795429 22.0688809 5.93072739 21.690697 5.88020559 21.2858764 5.76543324 20.9368262 5.58833236 20.653535" transform="translate(0 26.462)"/><polygon points=".751 42.279 5.496 42.408 5.513 41.664 .768 41.535 .81 39.712 .101 39.692 0 44.083 .709 44.103"/><polygon points=".831 33.077 .671 33.926 2.575 35.267 3.265 35.752 .16 36.638 0 37.487 4.085 36.258 6.48 36.652 6.615 35.933 4.22 35.538"/><path d="M4.83829501,28.6417604 C4.67044197,28.1948788 4.34060674,27.8738154 3.85786245,27.6879684 C3.37591874,27.5024247 2.93640529,27.5254661 2.55213124,27.7561831 C2.16839089,27.9862937 1.88952535,28.3858797 1.72327345,28.9437237 L1.1025641,31.025937 L6.43249863,33.0769231 L6.65906021,32.3165575 L4.48737808,31.4810042 L4.84256472,30.2895223 L7.44949059,29.6652828 L7.71794872,28.7654562 L4.96291722,29.4188006 C4.97038922,29.1429104 4.92875953,28.8827853 4.83829501,28.6417604 M4.18609654,29.9005474 L3.79435049,31.2142093 L2.02215327,30.5320631 L2.41389932,29.2184012 C2.52331068,28.8515582 2.67942202,28.6053792 2.8774299,28.4868374 C3.07517092,28.3689019 3.32521592,28.3667797 3.62142717,28.4807739 C3.91790528,28.5947681 4.1156463,28.7693975 4.2093131,28.9992049 C4.30324676,29.2302251 4.29550791,29.5334012 4.18609654,29.9005474"/><polygon points="8.998 25.545 7.472 24.762 8.513 22.885 7.877 22.559 6.835 24.436 5.375 23.687 6.714 21.275 6.077 20.949 4.41 23.952 9.307 26.462 11.026 23.364 10.389 23.038"/><polygon points="12.039 20.931 8.143 17.641 7.718 18.27 12.197 22.051 14.333 18.889 13.751 18.398"/><path d="M17.195017,14.3681318 C16.9419531,14.1049953 16.6538996,13.9490923 16.3384512,13.9047014 C16.0232741,13.8605779 15.6392028,13.9640675 15.1970869,14.2122288 L14.215481,14.7596276 C13.9244439,14.9203441 13.6898241,14.9869304 13.5184024,14.9577822 C13.3461671,14.9286339 13.193732,14.8462701 13.0657082,14.7130973 C12.9517888,14.5948998 12.8771987,14.4611923 12.8430228,14.3162533 C12.8093895,14.1726513 12.8253925,14.0135393 12.8907605,13.8439981 C12.9569423,13.6717828 13.0865935,13.4950214 13.276188,13.3177251 C13.5118927,13.0976425 13.7654991,12.9596563 14.0302262,12.90858 C14.2952246,12.8572363 14.6201662,12.8960115 14.9963716,13.0241033 L15.0592986,13.0454965 L15.1384997,12.2737365 L15.0978142,12.2609005 C14.6662765,12.123984 14.2553528,12.0929638 13.876435,12.1681075 C13.496161,12.243786 13.1370435,12.4376619 12.808847,12.7441197 C12.5221497,13.0118022 12.3249606,13.304087 12.2221619,13.612684 C12.1193631,13.9220834 12.100919,14.2261344 12.1668296,14.5168146 C12.2330113,14.8074949 12.3743257,15.0668875 12.5867041,15.2877724 C12.7429365,15.4508957 12.9224952,15.5744415 13.1204981,15.6557357 C13.3201283,15.7380995 13.5444412,15.7637714 13.7871981,15.7322164 C14.0269714,15.7011962 14.2933259,15.6059965 14.578667,15.4490238 L15.6448988,14.8575015 C15.8985052,14.7163063 16.1100699,14.6593469 16.2738969,14.6876929 C16.4390801,14.7163063 16.5814794,14.7922522 16.69784,14.9131238 C16.8258637,15.0462966 16.9007251,15.1933749 16.9205254,15.3500802 C16.9408681,15.5075877 16.9077772,15.6739199 16.8226089,15.8442633 C16.7358131,16.0180832 16.5988385,16.1932401 16.41494,16.3649206 C16.2174796,16.5494371 16.009441,16.683412 15.7973339,16.7625669 C15.5854979,16.8417218 15.3693222,16.8751487 15.1531465,16.8617779 C14.9353434,16.8481398 14.7175402,16.7978657 14.5057043,16.7120255 L14.4384376,16.6847491 L14.3741545,17.5075855 L14.413755,17.520154 C14.666819,17.6003785 14.9339872,17.6410256 15.2084788,17.6410256 L15.2187858,17.6410256 C15.497346,17.639956 15.7821446,17.5829966 16.0647733,17.4714844 C16.3479445,17.3602397 16.6284033,17.1757233 16.8988264,16.923016 C17.1885073,16.6526593 17.3960034,16.3630487 17.5158901,16.0624741 C17.6365905,15.760295 17.6702238,15.4578485 17.6157052,15.1636918 C17.5611866,14.8695352 17.4193298,14.6018526 17.195017,14.3681318"/><polygon points="20.115 12.234 19.053 10.809 20.997 9.533 20.554 8.938 18.61 10.214 17.594 8.85 20.092 7.21 19.649 6.615 16.538 8.656 19.946 13.231 23.154 11.126 22.711 10.531"/><polygon points="25.357 9.643 23.507 6.161 23.196 5.627 24.019 6.193 27.843 8.606 28.667 8.262 26.033 3.308 25.36 3.588 27.211 7.069 27.525 7.609 26.684 7.025 22.874 4.625 22.051 4.968 24.685 9.923"/><polygon points="34.215 7.563 33.594 4.989 36.241 4.496 36.058 3.738 33.41 4.231 32.991 2.492 36.385 1.86 36.202 1.103 31.974 1.889 33.381 7.718"/><path d="M14.0779994 4.60013066C14.2917736 5.02976717 14.5861199 5.36115453 14.9528999 5.5850649 15.2879393 5.78997682 15.6785925 5.89338271 16.1156358 5.89338271 16.1568714 5.89338271 16.1989209 5.89256849 16.2412417 5.89066864 16.7290156 5.86922753 17.151952 5.72836755 17.4975716 5.4724312 17.8434624 5.21703767 18.1074246 4.86095232 18.2824047 4.4144886 18.456571 3.97019614 18.5314462 3.44095343 18.50486 2.84087362 18.4785452 2.24106522 18.3570086 1.72050753 18.144591 1.29331367 17.9308168.864219968 17.6364705.532832612 17.2699618.308379424 16.902368.0841976416 16.4688514-.0186654279 15.9813487.00277568682 15.4938461.0244882081 15.0709097.165076783 14.7247476.421013128 14.379128.676406659 14.115437 1.03249201 13.9401857 1.47922713 13.7662907 1.92324819 13.6911442 2.45276231 13.7177304 3.05257071 13.7443165 3.65237911 13.8655818 4.17320821 14.0779994 4.60013066M14.6159615 1.81875668C14.7347852 1.48655511 14.9154623 1.22573345 15.153381 1.04307686 15.3904858.86096309 15.6799489.761085492 16.0141745.74642954 16.3532832.731230775 16.6516988.805053348 16.9015541.965726005 17.151952 1.12667007 17.3537895 1.37093593 17.5013696 1.69119562 17.6503061 2.01471219 17.7360328 2.41259414 17.7566506 2.87398522 17.7769971 3.3356477 17.7265378 3.7395006 17.6066289 4.07468764 17.4878052 4.40688922 17.3082133 4.66771088 17.0730075 4.85036747 16.8383442 5.03248124 16.5475246 5.13208743 16.2084159 5.14728619 15.8744617 5.16221355 15.5768599 5.08811957 15.3248343 4.92744692 15.0717236 4.76650285 14.8688009 4.5225084 14.7212208 4.20224871 14.5722843 3.87900355 14.4862863 3.48085019 14.4659398 3.01945911 14.4455933 2.55806803 14.4960527 2.15421514 14.6159615 1.81875668M21.8483633 3.62439709 22.9647091 3.76797114 24.03575 6.2570403 24.8789099 6.3653315 23.7525264 3.73404533C23.9961421 3.69252013 24.2158846 3.60539864 24.4090409 3.47240944 24.7676822 3.22597233 24.9830841 2.84057508 25.0490068 2.32653113 25.1149295 1.81303001 25.006686 1.37905099 24.7269892 1.03626456 24.4481062.694563755 24.0417183.487209177 23.5189484.420171768L21.5681239.169392147 20.8386332 5.84585943 21.5510328 5.93759483 21.8483633 3.62439709ZM22.185573.999081866 23.4164019 1.15731186C23.7603938 1.20155113 24.0075362 1.31337061 24.1513183 1.49032766 24.2948291 1.66619908 24.3466449 1.91535026 24.3062231 2.23099604 24.2655301 2.54664182 24.1521321 2.77435189 23.9692847 2.9084267 23.7856234 3.04304434 23.5181345 3.08864063 23.1741426 3.04467278L21.9433137 2.88644278 22.185573.999081866ZM6.0533041 50.8648724 16.2260225 50.8648724 18.1923103 50.8648724 20.1585982 50.8648724 30.3310453 50.8648724C30.3310453 50.5427129 30.3036453 50.214311 30.323178 49.8926943 30.3386413 49.6427289 30.3831324 49.3965632 30.492461 49.1609823 30.7241401 48.6588803 31.1090963 48.2428141 31.4346406 47.8017785 31.8082028 47.2956053 32.1861055 46.7929605 32.5648221 46.2911298 32.6619428 46.1624831 32.7593348 46.0343793 32.8564556 45.906004 33.5371145 45.0071056 34.2221141 44.1122783 34.9100978 43.2196223 35.1716185 42.8803641 35.4336817 42.5413774 35.6962874 42.2029335 35.9415309 41.8864735 36.1175961 41.535002 36.2304515 41.1653464 36.2445584 41.1197501 36.2578515 41.0730681 36.2700594 41.0263862 36.2942039 40.9330224 36.3145504 40.8385729 36.3308276 40.7433092 36.3802019 40.4583324 36.3951227 40.1665704 36.377489 39.8756226 36.3338118 39.1482531 36.0880258 38.4263118 35.6762122 37.8229751 35.671329 37.8153757 35.665632 37.8080478 35.6604776 37.800177 35.6252103 37.7486097 35.5883152 37.6989423 35.5500638 37.6468323 35.4884816 37.5632391 35.419846 37.485074 35.3509391 37.4074517 35.3425293 37.3982239 35.3349332 37.3887247 35.3259807 37.3794969 35.2247907 37.2682202 35.1179037 37.1626431 35.0050483 37.0635797 34.9204067 36.9892143 34.8335949 36.9181058 34.7435276 36.8510684 34.7134148 36.8288131 34.6830307 36.8065577 34.6523752 36.7851166 34.6219911 36.7636755 34.5910644 36.7427772 34.5598664 36.7218789 34.5134763 36.6906671 34.4657298 36.6608124 34.4179833 36.6317719 34.3699655 36.60246 34.3214051 36.5739623 34.2728448 36.5470931 34.1420845 36.4746276 34.0075261 36.4089472 33.8694411 36.3508662 33.8002629 36.3220971 33.7308134 36.294685 33.6605501 36.2694442 33.6252828 36.2569595 33.5897442 36.2447462 33.5542056 36.2330758 33.518667 36.2214053 33.4828572 36.2102776 33.4473186 36.1996928 33.4294136 36.1942646 33.4115087 36.1891079 33.3930612 36.1842226 33.2669127 36.1483969 33.1388653 36.1182708 33.0097327 36.0946584 32.8613387 36.0675178 32.7115883 36.0485193 32.5610241 36.0382059 32.4736697 36.0319635 32.3868578 36.0297923 32.3003173 36.0308779 32.2135055 36.0316921 32.1266937 36.0360346 32.0393392 36.0439054 31.8757532 36.05829 31.7121672 36.0816309 31.5504802 36.1133855 31.4218901 36.1388977 31.2943853 36.1701094 31.1687794 36.2070207 31.0819676 36.2322615 30.9959696 36.2607592 30.9113281 36.2927852 30.8722628 36.3074411 30.8342826 36.3229113 30.7963024 36.3394671 30.793047 36.3408241 30.7914192 36.3416384 30.7914192 36.3416384 30.7914192 36.3416384 30.7914192 36.341367 30.7908767 36.3400099 30.7889777 36.3364816 30.7849084 36.3277966 30.7781262 36.3144977 30.7767697 36.3117836 30.7754133 36.3090696 30.7737856 36.3060841 30.6888728 36.1812371 30.5969065 36.061004 30.4984293 35.9461991 30.0730514 35.4489823 29.53102 35.0540858 28.9241511 34.8060203 28.462692 34.61685 27.9561992 34.5381421 27.4597441 34.5188722 27.3715758 34.5153439 27.2836789 34.5137155 27.1955106 34.5139869 24.4698905 34.520772 21.8804565 36.2629305 20.0915903 38.1926308 19.7226401 38.5905127 19.3197789 39.0160782 19.032486 39.4799119 18.8916881 39.7068077 18.7853436 39.8783367 18.7839872 39.8796937 18.7826308 39.8710087 18.781003 39.8596096 18.7796466 39.8452251 18.744108 39.4381153 18.8485535 36.8909651 18.9459455 36.8719667 20.680283 36.5766764 21.6311438 35.3086652 21.6311438 33.7893315 21.6311438 32.2081171 20.5706831 30.8983093 18.7281021 30.6741275L18.6464447 30.6741275 18.6464447 29.0014491 20.085622 29.0014491C20.2606021 29.3643196 20.6319939 29.6145565 21.0617125 29.6145565 21.3612133 29.6145565 21.6316864 29.4932377 21.8278269 29.2970108 22.1639514 28.9607382 22.2800622 28.4040834 21.9420387 27.8631702 21.8877813 27.7760487 21.8148051 27.702769 21.7274507 27.6484877 21.2725025 27.3648678 20.8058889 27.4025934 20.4705782 27.6224326 20.3004813 27.7337093 20.1634814 27.8913965 20.0774834 28.0775814L18.6464447 28.0775814 18.6464447 26.5973302C19.013496 26.4239015 19.2679631 26.0499033 19.2679631 25.6167385 19.2679631 25.0231724 18.7913119 24.5414259 18.1999064 24.5332837L18.1999064 24.5330123 18.1923103 24.5330123 18.1847143 24.5330123 18.1847143 24.5332837C17.5933087 24.5414259 17.1166575 25.0231724 17.1166575 25.6167385 17.1166575 26.0499033 17.3711247 26.4239015 17.738176 26.5973302L17.738176 28.0775814 16.3071373 28.0775814C16.2211393 27.8913965 16.0844107 27.7337093 15.9143137 27.6224326 15.5784605 27.4025934 15.1123895 27.3648678 14.65717 27.6484877 14.5700869 27.702769 14.4968394 27.7757773 14.442582 27.8631702 14.1045584 28.4040834 14.2206693 28.9607382 14.5567938 29.2970108 14.7529343 29.4932377 15.0234074 29.6145565 15.3229082 29.6145565 15.7526267 29.6145565 16.1237473 29.3643196 16.2989986 29.0014491L17.738176 29.0014491 17.738176 30.6741275 17.6565186 30.6741275C15.8139376 30.8983093 14.7534768 32.2081171 14.7534768 33.7893315 14.7534768 35.3086652 15.7043376 36.5766764 17.4386752 36.8719667 17.5360672 36.8909651 17.6405127 39.4381153 17.6049741 39.8452251 17.6036176 39.8596096 17.6019899 39.8710087 17.6006335 39.8796937 17.5995483 39.8783367 17.4929326 39.7068077 17.3521346 39.4799119 17.0648417 39.0160782 16.6619806 38.5905127 16.2930303 38.1926308 14.5038928 36.2629305 11.9147301 34.520772 9.18911005 34.5139869 9.10094179 34.5137155 9.01304481 34.5153439 8.92487655 34.5188722 8.42842142 34.5381421 7.92192867 34.61685 7.46046955 34.8060203 6.85360062 35.0540858 6.31156928 35.4489823 5.88592004 35.9461991 5.78771416 36.061004 5.69574789 36.1812371 5.61056378 36.3060841 5.60920735 36.3090696 5.60785091 36.3117836 5.60676576 36.3144977 5.5997123 36.3277966 5.595643 36.3364816 5.59401528 36.3400099 5.5934727 36.341367 5.59293013 36.3416384 5.59293013 36.3416384 5.59293013 36.3416384 5.59157369 36.3408241 5.58831825 36.3394671 5.55033808 36.3229113 5.5123579 36.3074411 5.47329258 36.2927852 5.38865105 36.2607592 5.3023818 36.2322615 5.21584126 36.2070207 5.0902354 36.1701094 4.96273052 36.1388977 4.83414051 36.1133855 4.67245348 36.0816309 4.50913873 36.05829 4.34528141 36.0439054 4.25792701 36.0360346 4.17138647 36.0316921 4.08430335 36.0308779 3.99776281 36.0297923 3.91095099 36.0319635 3.8233253 36.0382059 3.67330361 36.0485193 3.52328192 36.0675178 3.37488796 36.0946584 3.24575537 36.1182708 3.11797921 36.1483969 2.9912882 36.1842226 2.97311197 36.1891079 2.95520703 36.1942646 2.93757338 36.1996928 2.9017635 36.2102776 2.86568234 36.2214053 2.83014375 36.2330758 2.79460515 36.2447462 2.75906656 36.2569595 2.72434183 36.2694442 2.65380722 36.294685 2.58408648 36.3220971 2.51517959 36.3508662 2.37709453 36.4089472 2.24253619 36.4746276 2.11204717 36.5470931 2.06321552 36.5739623 2.01438386 36.60246 1.96690865 36.6317719 1.91889085 36.6608124 1.87114435 36.6906671 1.82475428 36.7218789 1.79355628 36.7427772 1.76290085 36.7636755 1.73224543 36.7851166 1.70159 36.8065577 1.67147715 36.8288131 1.64109301 36.8510684 1.55102574 36.9181058 1.46394262 36.9892143 1.37957238 37.0635797 1.26671701 37.1626431 1.15955866 37.2682202 1.05863991 37.3794969 1.04995873 37.3887247 1.04182012 37.3982239 1.03368151 37.4074517.964774622 37.485074.896139021 37.5632391.834556882 37.6468323.796034134 37.6989423.759410394 37.7486097.72414309 37.800177.718988638 37.8080478.713291611 37.8153757.708408446 37.8229751.296594844 38.4263118.0508088595 39.1482531.00713165926 39.8756226-.010501993 40.1665704.00441878968 40.4583324.0535217291 40.7433092.0697989466 40.8385729.0906880424 40.9330224.114561295 41.0263862.126769208 41.0730681.140062269 41.1197501.154169191 41.1653464.267024565 41.535002.442818514 41.8864735.688604498 42.2029335.950938987 42.5413774 1.2127309 42.8803641 1.47452282 43.2196223 2.16250654 44.1122783 2.8477774 45.0071056 3.52816509 45.906004 3.62528582 46.0343793 3.72267784 46.1624831 3.82006986 46.2911298 4.19851516 46.7929605 4.57668918 47.2956053 4.94998004 47.8017785 5.27552439 48.2428141 5.66020929 48.6588803 5.89215964 49.1609823 6.00175957 49.3965632 6.04625064 49.6427289 6.06144271 49.8926943 6.08124665 50.214311 6.0533041 50.5427129 6.0533041 50.8648724M30.7260391 41.166432C30.9799637 40.783206 31.1763754 40.3709395 31.3076783 39.94266 31.3193437 39.9038489 31.3307377 39.8644949 31.3415892 39.8254124 31.3849951 39.6685394 31.4194486 39.5097666 31.4452208 39.3499082 31.4514604 39.30974 31.4571574 39.2701147 31.4623119 39.2296751 31.5404425 38.627424 31.4886267 38.0088886 31.2857041 37.4079946 31.2767516 37.3805825 31.2669853 37.352899 31.2569477 37.3257584 31.2135417 37.2055253 31.7257315 37.1564007 31.7840582 37.1493441 31.8874186 37.136588 31.9888799 37.1273602 32.0892561 37.1222035 32.1098739 37.1216607 32.1296778 37.1205751 32.1494818 37.1203037 32.1698283 37.1194894 32.1899035 37.1191697 32.2099787 37.1191697 32.3901133 37.1181324 32.5688914 37.135231 32.7525527 37.1808273 33.0222119 37.2475933 33.2812909 37.351542 33.5219225 37.4880595 33.6019521 37.5333844 33.6798115 37.5825089 33.7555005 37.6348904 34.2595517 37.9841906 34.6564445 38.4841214 34.8514999 39.0749734 34.8726602 39.1392967 34.8908365 39.2033487 34.9068424 39.2665864 34.909284 39.2758142 34.9119969 39.2847706 34.9141671 39.293727 34.9334285 39.3727063 34.948078 39.4516856 34.9592008 39.5298507 34.9643552 39.5692046 34.9686958 39.6082872 34.9724938 39.6470983 35.059577 40.6217191 34.5484723 41.5352734 34.0002014 42.3413508 33.9342787 42.4382429 33.8680846 42.5332352 33.8021619 42.6268705 33.7799164 42.6580822 33.7582134 42.6890225 33.7365105 42.7199629 33.5194809 43.0263808 33.2972969 43.3289991 33.0715861 43.6286319 32.8458754 43.9282647 32.6163666 44.2251834 32.3844163 44.5204737 31.611791 45.5035081 30.8125796 46.4667298 30.0350712 47.4470502 29.4040577 48.2430855 28.7540542 49.2424043 27.6935935 49.4804278 27.600542 49.5013261 27.5083045 49.5127252 27.4179659 49.5154392 26.6947149 49.5360661 26.0821489 48.9967814 25.900658 48.308223 25.8629491 48.1649204 25.8436877 48.015104 25.8464006 47.8623021 25.8491134 47.689959 25.8719015 47.524401 25.910153 47.3653568 26.0414559 46.8230866 26.3575052 46.3519249 26.7123485 45.9136034 26.7750158 45.8362525 26.8387683 45.7599873 26.902792 45.6845363 26.9459266 45.6343261 26.9890612 45.5838444 27.0316533 45.5344485 27.1393542 45.4104157 27.24597 45.2882827 27.3493303 45.1672354 27.8354765 44.5945677 28.3202663 44.0210857 28.8145512 43.4560174 28.8555155 43.409064 28.8967511 43.3623821 28.9377155 43.3159716 29.556521 42.6184569 30.20978 41.9461829 30.7260391 41.166432M18.9836544 42.574489C18.986096 42.5587474 18.9890801 42.5430058 18.9915217 42.5272643 19.0389969 42.2368593 19.12608 41.9453687 19.23568 41.6606633 19.3455512 41.3759578 19.4779392 41.0977661 19.6165669 40.833959 19.6203649 40.8269024 19.6236203 40.8198459 19.6274183 40.8127893 19.6439668 40.7821204 19.6599728 40.7514514 19.6765213 40.7213253 19.6860163 40.7031411 19.6957827 40.6854996 19.705549 40.6675868 19.7158579 40.6485884 19.7261668 40.6295899 19.7364757 40.6108629 20.0655468 40.0124115 20.4694931 39.4565709 20.9320373 38.9547403 22.113492 37.6720731 23.5624357 36.5932322 25.2061633 35.9825675 25.5504265 35.8544637 25.9172065 35.7456296 26.292125 35.6723499 26.3235943 35.6661075 26.3547923 35.6601366 26.3859903 35.6544371 26.4489289 35.6435808 26.5115962 35.6329959 26.5748061 35.6240395 27.1108691 35.5469601 27.6558846 35.5494027 28.1691595 35.6785922 28.2068684 35.6883629 28.2440347 35.6984049 28.2809297 35.7095326 29.4189785 36.0501478 30.1587781 37.1148755 30.2922512 38.2797523 30.360073 38.8708757 30.2689206 39.4763836 29.9905801 40.0045407 29.3218578 41.2741804 28.1854367 42.2409304 27.2367462 43.2937163 27.1133107 43.4307766 26.9904177 43.5686511 26.867796 43.7073398 26.0091727 44.6787037 25.1681832 45.6886074 24.3421144 46.6556288L24.3407579 46.6575286C23.8101207 47.2475664 23.2661903 47.8272907 22.6503689 48.3261359 22.0095891 48.8447937 21.2752153 49.2880006 20.4732911 49.4996977 20.4559287 49.5040402 20.4385663 49.5083827 20.421204 49.5124538 20.4149644 49.5138108 20.4087248 49.5151678 20.4027565 49.515982 20.3910911 49.5186961 20.3794258 49.5211388 20.3674892 49.5235814 20.3598931 49.5252099 20.3522971 49.5260241 20.3447011 49.5273811 20.3338496 49.5295524 20.3235407 49.5311808 20.3126892 49.5328092 20.2999387 49.5347091 20.2880021 49.5360661 20.2744377 49.5387802 20.2589744 49.5404086 20.2440536 49.5417657 20.2288615 49.5436655 20.2196378 49.5444797 20.210414 49.5455654 20.2006477 49.5461082 20.1906101 49.5471938 20.1805724 49.5477366 20.1708061 49.5485508 20.1621249 49.549365 20.1529012 49.5499079 20.14422 49.5501793 20.1333685 49.5509935 20.1227883 49.5512649 20.1124794 49.5515363 20.1040695 49.5515363 20.0956596 49.5518077 20.0872497 49.5523505 20.0758557 49.5525541 20.0647329 49.5525541 20.0536101 49.5523505L20.0302795 49.5523505C20.0183428 49.5523505 20.0069488 49.5515363 19.9952835 49.5512649 19.9876874 49.5509935 19.980634 49.5504507 19.9733092 49.5501793 19.9611013 49.5496365 19.9491647 49.5488222 19.9366855 49.5477366 19.9301746 49.5474652 19.9236637 49.5469224 19.9168815 49.546651L19.8786301 49.5425799C19.8726617 49.5417657 19.8666934 49.5412229 19.8607251 49.5404086 19.8477033 49.5387802 19.8344103 49.5368803 19.8213885 49.5347091 19.8159628 49.5341663 19.8108083 49.5330807 19.8053826 49.5322664 19.7920895 49.5300952 19.7782539 49.5273811 19.7649608 49.5249385 19.7603489 49.5241242 19.7557371 49.5230386 19.7511252 49.521953 19.7370183 49.5192389 19.7234539 49.515982 19.709347 49.5127252 19.705549 49.5116395 19.7020223 49.5105539 19.6982242 49.5097397 19.683846 49.50594 19.6691965 49.5021403 19.6550896 49.4980692 19.6523767 49.4969836 19.6491213 49.4964408 19.6464084 49.4953551 19.6314876 49.4907412 19.6168381 49.4858559 19.6019174 49.4809706L19.5964916 49.4787994C19.5810283 49.4730998 19.5655649 49.4674003 19.5509154 49.4614293 19.5498303 49.4611579 19.5492877 49.4608865 19.5484738 49.4603437 19.4109313 49.3916779 19.2877671 49.3178553 19.2020404 49.1851375 19.1201117 49.0581193 19.034385 48.8377372 19.1740978 48.7237464 19.3138106 48.6100271 19.4925887 48.5400042 19.6474936 48.449083 19.8094519 48.3543622 19.9670696 48.2528561 20.1208893 48.145922 20.4456198 47.9201117 20.7538018 47.6698749 21.0400095 47.39684 21.3218767 47.1284189 21.5842112 46.8371997 21.8088368 46.5188399 22.0076901 46.2373913 22.1794148 45.9317876 22.285488 45.6028429 22.2863018 45.5963291 22.3782681 45.3444639 22.3782681 45.0448311 22.3782681 44.1063074 21.6170369 43.3344272 20.6778414 43.3441979 20.4499604 43.3469119 20.2234358 43.393051 20.0104755 43.474473 20.0023369 43.4777299 19.9936557 43.4809868 19.9849745 43.484515 19.8289845 43.5461243 19.6797767 43.6251036 19.5395214 43.716839 19.397367 43.80966 19.2633512 43.91578 19.140187 44.0324848 19.0807751 44.0889374 19.0243474 44.1475612 18.9695475 44.208899L18.9445891 43.2999586C18.9378069 43.0589496 18.9475732 42.8173978 18.9828405 42.5788315 18.9831118 42.5774745 18.9833831 42.575846 18.9836544 42.574489M6.09264071 38.2797523C6.2258426 37.1148755 6.96537085 36.0501478 8.10396221 35.7095326 8.14058595 35.6984049 8.17775227 35.6883629 8.21546115 35.6785922 8.72846479 35.5494027 9.27375158 35.5469601 9.81008589 35.6240395 9.87275318 35.6329959 9.93596304 35.6435808 9.99835904 35.6544371 10.0298283 35.6601366 10.0610263 35.6661075 10.0927669 35.6723499 10.4674142 35.7456296 10.8341942 35.8544637 11.1787286 35.9825675 12.8219137 36.5932322 14.2711286 37.6720731 15.4525833 38.9547403 15.9153989 39.4565709 16.3190739 40.0124115 16.6478737 40.6108629 16.6584539 40.6295899 16.6687628 40.6485884 16.6790717 40.6675868 16.688838 40.6854996 16.6983331 40.7031411 16.7080994 40.7213253 16.7246479 40.7514514 16.7409251 40.7821204 16.7572023 40.8127893 16.7607291 40.8198459 16.7642558 40.8269024 16.7680538 40.833959 16.9064101 41.0977661 17.0390695 41.3759578 17.1486694 41.6606633 17.2585406 41.9453687 17.3453524 42.2368593 17.393099 42.5272643 17.3958118 42.5430058 17.3985247 42.5587474 17.4009663 42.574489 17.4012376 42.575846 17.4015088 42.5774745 17.4017801 42.5788315 17.4370474 42.8173978 17.4468138 43.0589496 17.4403029 43.2999586L17.4150732 44.208899C17.3605445 44.1475612 17.3041168 44.0889374 17.2444337 44.0324848 17.1209981 43.91578 16.9875249 43.80966 16.8450993 43.716839 16.7048439 43.6251036 16.5556361 43.5461243 16.3996461 43.484515 16.3909649 43.4809868 16.3822837 43.4777299 16.3741451 43.474473 16.1611849 43.393051 15.9346603 43.3469119 15.7065079 43.3441979 14.7675838 43.3344272 14.0063526 44.1063074 14.0063526 45.0448311 14.0063526 45.3444639 14.0980476 45.5963291 14.0991327 45.6028429 14.2052059 45.9317876 14.3772018 46.2373913 14.5757839 46.5188399 14.8004095 46.8371997 15.062744 47.1284189 15.3446111 47.39684 15.6310902 47.6698749 15.9390009 47.9201117 16.2637313 48.145922 16.417551 48.2528561 16.5751688 48.3543622 16.7371271 48.449083 16.8920319 48.5400042 17.07081 48.6100271 17.2105228 48.7237464 17.3505069 48.8377372 17.2645089 49.0581193 17.182309 49.1851375 17.0968536 49.3178553 16.9736893 49.3916779 16.8361468 49.4603437 16.835333 49.4608865 16.8347904 49.4611579 16.8337052 49.4614293 16.8190557 49.4674003 16.8035924 49.4730998 16.788129 49.4787994L16.7827033 49.4809706C16.7677825 49.4858559 16.7528617 49.4907412 16.7379409 49.4953551 16.7352281 49.4964408 16.7322439 49.4969836 16.7295311 49.4980692 16.7154241 49.5021403 16.7007746 49.50594 16.6863964 49.5097397 16.6828697 49.5105539 16.6790717 49.5116395 16.6752737 49.5127252 16.661438 49.515982 16.6476024 49.5192389 16.6334955 49.521953 16.6286123 49.5230386 16.6242717 49.5241242 16.6196598 49.5249385 16.6063668 49.5273811 16.5928024 49.5300952 16.5792381 49.5322664 16.5738123 49.5330807 16.5686579 49.5341663 16.5632321 49.5347091 16.5499391 49.5368803 16.5371886 49.5387802 16.5238955 49.5404086 16.5179272 49.5412229 16.5119589 49.5417657 16.5059906 49.5425799 16.4932401 49.5439369 16.4804896 49.5452939 16.4677391 49.546651 16.460957 49.5469224 16.4544461 49.5474652 16.4479352 49.5477366 16.4357273 49.5488222 16.4237906 49.5496365 16.4115827 49.5501793 16.4039867 49.5504507 16.396662 49.5509935 16.3896085 49.5512649 16.3776719 49.5515363 16.3662778 49.5523505 16.3546125 49.5523505L16.3307392 49.5523505C16.3198877 49.5525541 16.308765 49.5525541 16.2973709 49.5523505 16.2886897 49.5518077 16.2805511 49.5515363 16.2721412 49.5515363 16.2618323 49.5512649 16.2512521 49.5509935 16.2404007 49.5501793 16.2317195 49.5499079 16.2224957 49.549365 16.2138145 49.5485508 16.2037769 49.5477366 16.1940106 49.5471938 16.183973 49.5461082 16.1744779 49.5455654 16.1649829 49.5444797 16.1554878 49.5436655 16.1405671 49.5417657 16.1256463 49.5404086 16.1101829 49.5387802 16.0966186 49.5360661 16.0849532 49.5347091 16.0719315 49.5328092 16.0613513 49.5311808 16.0510424 49.5295524 16.0401909 49.5273811 16.0323236 49.5260241 16.0247275 49.5252099 16.0174028 49.5235814 16.0054662 49.5211388 15.9938008 49.5186961 15.9818642 49.515982 15.9758959 49.5151678 15.9696563 49.5138108 15.9634167 49.5124538 15.9460543 49.5083827 15.9284207 49.5040402 15.9113296 49.4996977 15.109134 49.2880006 14.3750315 48.8447937 13.7342517 48.3261359 13.1184303 47.8272907 12.5745 47.2475664 12.0438627 46.6575286L12.0425063 46.6556288C11.2164375 45.6886074 10.3757192 44.6787037 9.51709598 43.7073398 9.39420299 43.5686511 9.27131 43.4307766 9.14787443 43.2937163 8.19918394 42.2409304 7.06276287 41.2741804 6.39404052 40.0045407 6.11542881 39.4763836 6.02481897 38.8708757 6.09264071 38.2797523M4.00047568 44.5204737C3.76825405 44.2251834 3.53874528 43.9282647 3.31303453 43.6286319 3.08732378 43.3289991 2.86513976 43.0263808 2.6481102 42.7199629 2.62640724 42.6890225 2.604433 42.6580822 2.58245875 42.6268705 2.51653602 42.5332352 2.450342 42.4382429 2.38469056 42.3413508 1.83614833 41.5352734 1.3250437 40.6217191 1.41212682 39.6470983 1.41565355 39.6082872 1.42026542 39.5692046 1.42541988 39.5298507 1.43654264 39.4516856 1.45119214 39.3727063 1.47018222 39.293727 1.47262381 39.2847706 1.47533668 39.2758142 1.47777826 39.2665864 1.49378419 39.2033487 1.51196042 39.1392967 1.5331208 39.0749734 1.72844741 38.4841214 2.12534023 37.9841906 2.62912011 37.6348904 2.70453788 37.5825089 2.78266853 37.5333844 2.86269818 37.4880595 3.10332971 37.351542 3.36240876 37.2475933 3.63179671 37.1808273 3.81572927 37.135231 3.99450737 37.1181324 4.17464191 37.1191697 4.19471715 37.1191697 4.21506367 37.1194894 4.2351389 37.1203037 4.25467156 37.1205751 4.2747468 37.1216607 4.29536461 37.1222035 4.39601207 37.1273602 4.49747339 37.136588 4.60083372 37.1493441 4.65888913 37.1564007 5.17107891 37.2055253 5.12740171 37.3257584 5.11736409 37.352899 5.10814033 37.3805825 5.09891658 37.4079946 4.89599393 38.0088886 4.84417812 38.627424 4.92230877 39.2296751 4.92773451 39.2701147 4.93316025 39.30974 4.93967113 39.3499082 4.96490082 39.5097666 4.99962555 39.6685394 5.04303146 39.8254124 5.05361166 39.8644949 5.06500571 39.9038489 5.07667105 39.94266 5.20824522 40.3709395 5.40465698 40.783206 5.65858157 41.166432 6.17484065 41.9461829 6.82809965 42.6184569 7.4469052 43.3159716 7.48786953 43.3623821 7.52910515 43.409064 7.57006948 43.4560174 8.06435432 44.0210857 8.54914411 44.5945677 9.03529034 45.1672354 9.13865067 45.2882827 9.24553773 45.4104157 9.35269608 45.5344485 9.39555942 45.5838444 9.43869405 45.6343261 9.48182867 45.6845363 9.5458524 45.7599873 9.60960483 45.8362525 9.67227212 45.9136034 10.0271155 46.3519249 10.3431648 46.8230866 10.4744677 47.3653568 10.5127191 47.524401 10.5355072 47.689959 10.5382201 47.8623021 10.540933 48.015104 10.5219429 48.1649204 10.4839627 48.308223 10.3024717 48.9967814 9.68990577 49.5360661 8.96665474 49.5154392 8.87631618 49.5127252 8.78407862 49.5013261 8.69129848 49.4804278 7.63056647 49.2424043 6.98056292 48.2430855 6.34954946 47.4470502 5.57231232 46.4667298 4.77282965 45.5035081 4.00047568 44.5204737M6.04535539 55.5047568C6.04535539 55.9056242 6.37035716 56.2307692 6.771048 56.2307692L29.6134099 56.2307692C30.014372 56.2307692 30.3391025 55.9056242 30.3391025 55.5047568L30.3391025 51.7748171 6.04535539 51.7748171 6.04535539 55.5047568Z" transform="translate(24.256)"/></g></svg>
